<svg id="visual" viewBox="0 0 9999 1000" width="9999" height="1000" xmlns="http://www.w3.org/2000/svg" xmlns:xlink="http://www.w3.org/1999/xlink" version="1.1"><path d="M0 836L119 836.7C238 837.3 476 838.7 714 833.7C952 828.7 1190 817.3 1428.2 798.5C1666.3 779.7 1904.7 753.3 2142.8 764C2381 774.7 2619 822.3 2857 843C3095 863.7 3333 857.3 3571 833.2C3809 809 4047 767 4285.2 768.2C4523.3 769.3 4761.7 813.7 4999.8 819C5238 824.3 5476 790.7 5714 796.3C5952 802 6190 847 6428 840.8C6666 834.7 6904 777.3 7142 751C7380 724.7 7618 729.3 7856.2 752.7C8094.3 776 8332.7 818 8570.8 829.2C8809 840.3 9047 820.7 9285 810.5C9523 800.3 9761 799.7 9880 799.3L9999 799L9999 1001L9880 1001C9761 1001 9523 1001 9285 1001C9047 1001 8809 1001 8570.8 1001C8332.7 1001 8094.3 1001 7856.2 1001C7618 1001 7380 1001 7142 1001C6904 1001 6666 1001 6428 1001C6190 1001 5952 1001 5714 1001C5476 1001 5238 1001 4999.8 1001C4761.7 1001 4523.3 1001 4285.2 1001C4047 1001 3809 1001 3571 1001C3333 1001 3095 1001 2857 1001C2619 1001 2381 1001 2142.8 1001C1904.7 1001 1666.3 1001 1428.2 1001C1190 1001 952 1001 714 1001C476 1001 238 1001 119 1001L0 1001Z" fill="#1d7a9b" stroke-linecap="round" stroke-linejoin="miter"></path></svg>